<svg width="24" height="24" viewBox="0 0 24 24" xmlns="http://www.w3.org/2000/svg"><title>Combined Shape</title><g transform="translate(-194 -2653)" fill="#9A9A9A" id="Page-1" fill-rule="evenodd"><g id="Footer" transform="translate(0 2324)"><g id="contact-info" transform="translate(23 40)"><g id="Social-media-Icons" transform="translate(69 289)"><path d="M114 24c6.627 0 12-5.373 12-12s-5.373-12-12-12-12 5.373-12 12 5.373 12 12 12zm-3.3-6.55h-2.3v-7.4h2.3v7.4zm-1.25-8.35c-.85 0-1.4-.55-1.4-1.3s.55-1.3 1.4-1.3c.85 0 1.4.55 1.4 1.3s-.5 1.3-1.4 1.3zm10.5 8.35h-2.65V13.6c0-1-.4-1.7-1.3-1.7-.7 0-1.05.45-1.25.9-.05.15-.05.4-.05.6v4h-2.6s.05-6.8 0-7.4h2.6v1.15c.15-.5 1-1.25 2.3-1.25 1.65 0 2.95 1.05 2.95 3.35v4.2z" id="Combined-Shape"/></g></g></g></g></svg>