<svg id="Layer_1" viewBox="0 0 512 512" xmlns="http://www.w3.org/2000/svg"><g id="Background_1_"><radialGradient cx="51.992" cy="13.509" gradientTransform="matrix(.0566 -1.08 .918 .04811 -5.988 520.557)" gradientUnits="userSpaceOnUse" id="SVGID_1_" r="684.445"><stop offset="0" stop-color="#fed576"/><stop offset=".263" stop-color="#f47133"/><stop offset=".609" stop-color="#bc3081"/><stop offset="1" stop-color="#4c63d2"/></radialGradient><path d="M0 249.5v13.8C3.6 395.7 110.2 502 237.1 512h39C403.7 501.9 508.5 394.7 512 263.1v-13.6C508.5 115.6 400.1 7 269.4.3 128.8-6.8 3.9 106 0 249.5z" fill="url(#SVGID_1_)"/></g><g fill="#FFF" id="Symbol"><path d="M257.2 128.6c40.8 0 45.6.1 61.8.9 14.9.6 22.9 3.2 28.3 5.3 7.1 2.8 12.2 6.2 17.5 11.6 5.3 5.4 8.7 10.6 11.5 17.8 2.1 5.5 4.5 13.7 5.3 28.9.8 16.4.9 21.3.9 62.8s-.1 46.4-.9 62.8c-.6 15.1-3.1 23.4-5.3 28.9-2.8 7.2-6.1 12.4-11.5 17.8-5.3 5.4-10.4 8.8-17.5 11.6-5.4 2.2-13.5 4.7-28.3 5.3-16.1.8-21 .9-61.8.9s-45.6-.1-61.8-.9c-14.9-.6-22.9-3.2-28.3-5.3-7.1-2.8-12.2-6.2-17.5-11.6s-8.7-10.6-11.5-17.8c-2.1-5.5-4.5-13.7-5.3-28.9-.8-16.4-.9-21.3-.9-62.8s.1-46.4.9-62.8c.6-15.1 3.1-23.4 5.3-28.9 2.8-7.2 6.1-12.4 11.5-17.8 5.3-5.4 10.4-8.8 17.5-11.6 5.4-2.2 13.5-4.7 28.3-5.3 16.1-.7 21-.9 61.8-.9m0-28c-41.5 0-46.7.2-62.9 1s-27.4 3.4-37.1 7.2c-10.1 4-18.6 9.3-27 18-8.5 8.7-13.7 17.3-17.6 27.6-3.8 9.8-6.4 21.2-7.1 37.7-.8 16.5-.9 21.8-.9 64s.2 47.5.9 64c.8 16.5 3.4 27.8 7.1 37.7 3.9 10.2 9.1 18.9 17.6 27.6s17 14 27 18c9.7 3.9 20.9 6.5 37.1 7.2 16.3.8 21.5 1 62.9 1s46.7-.2 62.9-1c16.2-.8 27.4-3.4 37.1-7.2 10.1-4 18.6-9.3 27-18 8.5-8.7 13.7-17.3 17.6-27.6 3.8-9.8 6.4-21.2 7.1-37.7.8-16.5.9-21.8.9-64s-.2-47.5-.9-64c-.8-16.5-3.4-27.8-7.1-37.7-3.9-10.2-9.1-18.9-17.6-27.6s-17-14-27-18c-9.7-3.9-20.9-6.5-37.1-7.2-16.2-.8-21.5-1-62.9-1z"/><path d="M257.2 176.2c-43.4 0-78.4 35.7-78.4 79.8s35.1 79.8 78.4 79.8 78.4-35.7 78.4-79.8-35.1-79.8-78.4-79.8zm0 131.6c-28.1 0-50.9-23.1-50.9-51.8s22.8-51.8 50.9-51.8 50.9 23.1 50.9 51.8c0 28.7-22.8 51.8-50.9 51.8z"/><ellipse cx="338.7" cy="173" rx="18.3" ry="18.6"/></g></svg>