<svg width="24" height="24" viewBox="0 0 24 24" xmlns="http://www.w3.org/2000/svg"><title>Page 1</title><g transform="translate(-160 -2653)" fill="#9A9A9A" id="Page-1" fill-rule="evenodd"><g id="Footer" transform="translate(0 2324)"><g id="contact-info" transform="translate(23 40)"><g id="Social-media-Icons" transform="translate(69 289)"><g id="Page-1" transform="translate(68)"><path d="M14.442 11.977c0 1.343-1.069 2.424-2.386 2.424-1.317 0-2.386-1.08-2.386-2.424 0-1.342 1.07-2.423 2.386-2.423 1.317 0 2.386 1.08 2.386 2.423" id="Fill-1"/><path d="M15.877 8.965a.864.864 0 0 1-.858-.87c0-.481.384-.87.858-.87.473 0 .857.389.857.87 0 .48-.384.87-.857.87m-3.82 6.746c-2.03 0-3.676-1.67-3.676-3.734 0-2.063 1.64-3.733 3.675-3.733 2.03 0 3.675 1.67 3.675 3.733 0 2.064-1.645 3.734-3.675 3.734m5.832-6.676c-.038-.711-.15-1.095-.249-1.352a2.303 2.303 0 0 0-.539-.833 2.207 2.207 0 0 0-.82-.543c-.253-.098-.628-.22-1.327-.248-.76-.037-.984-.042-2.897-.042-1.912 0-2.142.01-2.897.042-.693.028-1.073.145-1.326.248-.333.131-.572.29-.82.543a2.243 2.243 0 0 0-.54.833c-.103.257-.22.645-.248 1.352-.037.767-.042.996-.042 2.938 0 1.941.005 2.17.042 2.938.038.71.15 1.095.248 1.352.132.337.291.58.54.833.248.252.487.411.82.542.253.099.628.22 1.326.248.76.038.985.042 2.897.042 1.913 0 2.142-.004 2.897-.042.694-.028 1.074-.145 1.327-.248.332-.13.572-.29.82-.542.253-.253.408-.496.54-.833.102-.257.22-.646.247-1.352.038-.767.043-.997.043-2.938 0-1.942-.005-2.171-.043-2.938" id="Fill-3"/><path d="M19.167 14.976c-.033.772-.155 1.306-.333 1.764a3.565 3.565 0 0 1-.825 1.291 3.43 3.43 0 0 1-1.265.842c-.455.178-.98.3-1.74.337-.759.038-1.007.047-2.948.047-1.94 0-2.184-.01-2.948-.047-.76-.033-1.285-.154-1.74-.337a3.508 3.508 0 0 1-1.265-.842 3.604 3.604 0 0 1-.825-1.291c-.173-.463-.295-.992-.333-1.764-.033-.772-.042-1.02-.042-2.994 0-1.974.005-2.222.042-2.994.033-.772.155-1.305.333-1.764.183-.482.427-.884.825-1.291a3.43 3.43 0 0 1 1.266-.842c.454-.178.98-.3 1.739-.337.76-.037 1.003-.047 2.948-.047 1.94 0 2.19.01 2.949.047.76.033 1.284.154 1.739.337.468.187.867.435 1.265.842.399.407.643.814.825 1.291.174.463.296.992.333 1.764.033.772.042 1.02.042 2.994 0 1.974-.004 2.222-.042 2.994M12.628.015C6.038-.317.183 4.96 0 11.673v.646c.169 6.194 5.166 11.167 11.114 11.635h1.828C18.923 23.482 23.836 18.466 24 12.31v-.637C23.836 5.41 18.755.328 12.628.015" id="Fill-5"/></g></g></g></g></g></svg>