<?xml version="1.0" encoding="UTF-8" standalone="no"?>
<svg width="24px" height="24px" viewBox="0 0 24 24" version="1.1" xmlns="http://www.w3.org/2000/svg" xmlns:xlink="http://www.w3.org/1999/xlink">
    <!-- Generator: Sketch 41.1 (35376) - http://www.bohemiancoding.com/sketch -->
    <title>Combined Shape</title>
    <desc>Created with Sketch.</desc>
    <defs></defs>
    <g id="Page-1" stroke="none" stroke-width="1" fill="none" fill-rule="evenodd">
        <g transform="translate(-126.000000, -2653.000000)" fill="#9A9A9A">
            <g id="Footer" transform="translate(0.000000, 2324.000000)">
                <g id="contact-info" transform="translate(23.000000, 40.000000)">
                    <g id="Social-media-Icons" transform="translate(69.000000, 289.000000)">
                        <path d="M46,24 C52.627417,24 58,18.627417 58,12 C58,5.372583 52.627417,0 46,0 C39.372583,0 34,5.372583 34,12 C34,18.627417 39.372583,24 46,24 Z M52.4,7.7 C51.95,7.95 51.4,8.1 50.9,8.15 C51.45,7.8 51.85,7.25 52.05,6.6 C51.55,6.9 51,7.15 50.35,7.3 C49.85,6.75 49.2,6.4 48.45,6.4 C47,6.4 45.8,7.65 45.8,9.25 C45.8,9.45 45.8,9.7 45.85,9.9 C43.65,9.8 41.7,8.65 40.4,6.95 C40.15,7.35 40.05,7.85 40.05,8.4 C40.05,9.4 40.5,10.25 41.2,10.75 C40.75,10.75 40.35,10.6 40,10.4 L40,10.45 C40,11.8 40.9,12.95 42.1,13.25 C41.9,13.3 41.65,13.35 41.4,13.35 C41.25,13.35 41.05,13.35 40.9,13.3 C41.25,14.45 42.2,15.25 43.35,15.25 C42.45,16 41.3,16.45 40.1,16.45 C39.9,16.45 39.7,16.45 39.45,16.4 C40.6,17.2 42,17.7 43.5,17.7 C48.35,17.7 51,13.4 51,9.65 L51,9.3 C51.6,8.8 52.05,8.3 52.4,7.7 Z" id="Combined-Shape"></path>
                    </g>
                </g>
            </g>
        </g>
    </g>
</svg>
