<?xml version="1.0" encoding="UTF-8" standalone="no"?>
<svg width="18px" height="18px" viewBox="0 0 18 18" version="1.1" xmlns="http://www.w3.org/2000/svg" xmlns:xlink="http://www.w3.org/1999/xlink">
    <!-- Generator: Sketch 41.1 (35376) - http://www.bohemiancoding.com/sketch -->
    <title>ic_phone_black_24px</title>
    <desc>Created with Sketch.</desc>
    <defs></defs>
    <g id="Page-1" stroke="none" stroke-width="1" fill="none" fill-rule="evenodd">
        <g transform="translate(-146.000000, -2558.000000)">
            <g id="Footer" transform="translate(0.000000, 2324.000000)">
                <g id="contact-info" transform="translate(23.000000, 40.000000)">
                    <g id="phone" transform="translate(88.000000, 191.000000)">
                        <g id="ic_phone_black_24px" transform="translate(32.000000, 0.000000)">
                            <g id="Group">
                                <polygon id="Shape" points="0 0 24 0 24 24 0 24"></polygon>
                                <path d="M6.62,10.79 C8.06,13.62 10.38,15.93 13.21,17.38 L15.41,15.18 C15.68,14.91 16.08,14.82 16.43,14.94 C17.55,15.31 18.76,15.51 20,15.51 C20.55,15.51 21,15.96 21,16.51 L21,20 C21,20.55 20.55,21 20,21 C10.61,21 3,13.39 3,4 C3,3.45 3.45,3 4,3 L7.5,3 C8.05,3 8.5,3.45 8.5,4 C8.5,5.25 8.7,6.45 9.07,7.57 C9.18,7.92 9.1,8.31 8.82,8.59 L6.62,10.79 Z" id="Shape" fill="#9A9A9A"></path>
                            </g>
                        </g>
                    </g>
                </g>
            </g>
        </g>
    </g>
</svg>
