<svg id="Capa_1" xmlns="http://www.w3.org/2000/svg" viewBox="0 0 425.034 425.034" fill="#F92C53"><path d="M133.822 384.2c-33.836-24.953-54.037-64.915-54.037-106.898V147.731c0-3.798.162-7.633.482-11.396a7.5 7.5 0 0 0-14.946-1.27 150.462 150.462 0 0 0-.536 12.666v129.571c0 23.526 5.669 46.938 16.395 67.704 10.375 20.087 25.5 37.815 43.739 51.266a7.466 7.466 0 0 0 4.446 1.464 7.5 7.5 0 0 0 4.457-13.536zM168.819 402.675a132.357 132.357 0 0 1-13.61-5.615 7.499 7.499 0 0 0-10.005 3.521 7.5 7.5 0 0 0 3.52 10.005 147.57 147.57 0 0 0 15.158 6.253c.817.285 1.65.42 2.469.42a7.504 7.504 0 0 0 7.082-5.033 7.502 7.502 0 0 0-4.614-9.551zM352.749 243.219a7.5 7.5 0 0 0-7.5 7.5v26.584c0 73.188-59.543 132.731-132.732 132.731a134.7 134.7 0 0 1-15.502-.895 7.496 7.496 0 0 0-8.316 6.584 7.499 7.499 0 0 0 6.583 8.316 149.69 149.69 0 0 0 17.235.995c81.459 0 147.731-66.272 147.731-147.731v-26.584a7.498 7.498 0 0 0-7.499-7.5zM212.517 0c-31.895 0-62.263 10.003-87.824 28.928-25.053 18.55-43.32 43.961-52.826 73.489a7.5 7.5 0 1 0 14.279 4.597c8.54-26.525 24.955-49.358 47.473-66.03C156.577 23.985 183.86 15 212.517 15c73.188 0 132.731 59.543 132.731 132.731v72.987c0 4.142 3.357 7.5 7.5 7.5s7.5-3.358 7.5-7.5v-72.987C360.249 66.272 293.976 0 212.517 0z"/><path d="M111.172 318.746a7.5 7.5 0 0 0-3.408 10.044 117.316 117.316 0 0 0 42.296 47.096c18.678 11.873 40.275 18.149 62.457 18.149 16.784 0 32.996-3.504 48.187-10.415a7.5 7.5 0 1 0-6.211-13.653c-13.227 6.017-27.35 9.068-41.976 9.068-19.327 0-38.142-5.466-54.411-15.808a102.32 102.32 0 0 1-36.89-41.073 7.5 7.5 0 0 0-10.044-3.408zM284.635 366.78a7.467 7.467 0 0 0 4.954-1.872c25.204-22.199 39.659-54.13 39.659-87.605V147.732c0-24.963-7.801-48.792-22.559-68.909a7.499 7.499 0 0 0-10.483-1.611 7.5 7.5 0 0 0-1.61 10.484c12.856 17.526 19.652 38.286 19.652 60.036v129.571c0 29.169-12.602 56.997-34.573 76.349a7.5 7.5 0 0 0 4.96 13.128zM270.318 64.059a7.47 7.47 0 0 0 4.266 1.337 7.5 7.5 0 0 0 4.279-13.665 117.054 117.054 0 0 0-18-10.244 7.5 7.5 0 1 0-6.232 13.644 101.968 101.968 0 0 1 15.687 8.928zM232.047 32.634A117.504 117.504 0 0 0 212.517 31C148.152 31 95.786 83.366 95.786 147.732v125.987a7.5 7.5 0 0 0 15 0V147.732C110.786 91.637 156.423 46 212.517 46c5.711 0 11.44.479 17.027 1.424a7.495 7.495 0 0 0 8.646-6.144 7.499 7.499 0 0 0-6.143-8.646z"/><path d="M141.452 99.821a7.5 7.5 0 0 0 12.426 8.402C167.097 88.672 189.018 77 212.517 77c39.001 0 70.731 31.73 70.731 70.732v83.987c0 4.142 3.357 7.5 7.5 7.5s7.5-3.358 7.5-7.5v-83.987c0-47.273-38.459-85.732-85.731-85.732-28.486 0-55.052 14.139-71.065 37.821zM134.286 173.218a7.5 7.5 0 0 0 7.5-7.5v-17.986a7.5 7.5 0 0 0-15 0v17.986a7.5 7.5 0 0 0 7.5 7.5zM126.786 277.303c0 31.025 16.878 59.725 44.048 74.901a7.498 7.498 0 0 0 10.205-2.89 7.5 7.5 0 0 0-2.891-10.205c-22.429-12.528-36.362-36.21-36.362-61.805V195.72a7.5 7.5 0 0 0-15 0v81.583zM298.249 277.303v-13.584c0-4.142-3.357-7.5-7.5-7.5s-7.5 3.358-7.5 7.5v13.584c0 39.001-31.73 70.732-70.731 70.732a70.777 70.777 0 0 1-16.853-2.028 7.5 7.5 0 1 0-3.574 14.568 85.83 85.83 0 0 0 20.427 2.46c47.272-.001 85.731-38.46 85.731-85.732z"/><path d="M267.249 148.524c0-30.05-24.079-54.953-53.677-55.514-14.822-.28-28.786 5.283-39.369 15.668-10.587 10.388-16.417 24.258-16.417 39.054v129.571a7.5 7.5 0 0 0 15 0V147.732c0-10.736 4.234-20.803 11.923-28.347 7.685-7.541 17.873-11.576 28.578-11.377 21.483.407 38.962 18.583 38.962 40.517v71.194c0 4.142 3.357 7.5 7.5 7.5s7.5-3.358 7.5-7.5v-71.195z"/><path d="M188.786 285.987c0 21.632 17.599 39.232 39.231 39.232s39.231-17.599 39.231-39.232v-36.269c0-4.142-3.357-7.5-7.5-7.5s-7.5 3.358-7.5 7.5v36.269c0 13.361-10.87 24.232-24.231 24.232s-24.231-10.87-24.231-24.232v-64.268a7.5 7.5 0 0 0-15 0v64.268z"/><path d="M228.749 290.603a7.5 7.5 0 0 0 7.5-7.5v-134.9c0-12.932-9.902-23.55-22.545-24.174-6.567-.323-12.787 1.991-17.541 6.516-4.688 4.463-7.377 10.727-7.377 17.187v41.987a7.5 7.5 0 0 0 15 0v-41.987c0-2.407.966-4.653 2.72-6.322a8.651 8.651 0 0 1 6.46-2.399c4.567.225 8.283 4.349 8.283 9.192v134.9a7.5 7.5 0 0 0 7.5 7.5z"/></svg>