<svg width="24" height="24" viewBox="0 0 24 24" xmlns="http://www.w3.org/2000/svg"><title>Combined Shape</title><g transform="translate(-126 -2653)" fill="#9A9A9A" id="Page-1" fill-rule="evenodd"><g id="Footer" transform="translate(0 2324)"><g id="contact-info" transform="translate(23 40)"><g id="Social-media-Icons" transform="translate(69 289)"><path d="M46 24c6.627 0 12-5.373 12-12S52.627 0 46 0 34 5.373 34 12s5.373 12 12 12zm6.4-16.3c-.45.25-1 .4-1.5.45.55-.35.95-.9 1.15-1.55-.5.3-1.05.55-1.7.7-.5-.55-1.15-.9-1.9-.9-1.45 0-2.65 1.25-2.65 2.85 0 .2 0 .45.05.65-2.2-.1-4.15-1.25-5.45-2.95-.25.4-.35.9-.35 1.45 0 1 .45 1.85 1.15 2.35-.45 0-.85-.15-1.2-.35v.05c0 1.35.9 2.5 2.1 2.8-.2.05-.45.1-.7.1-.15 0-.35 0-.5-.05.35 1.15 1.3 1.95 2.45 1.95-.9.75-2.05 1.2-3.25 1.2-.2 0-.4 0-.65-.05 1.15.8 2.55 1.3 4.05 1.3 4.85 0 7.5-4.3 7.5-8.05V9.3c.6-.5 1.05-1 1.4-1.6z" id="Combined-Shape"/></g></g></g></g></svg>